<svg xmlns="http://www.w3.org/2000/svg" xmlns:xlink="http://www.w3.org/1999/xlink" width="28" height="28" viewBox="0 0 28 28">
  <defs>
    <clipPath id="clip-path">
      <rect id="Rectángulo_7" data-name="Rectángulo 7" width="28" height="28" transform="translate(6325 5780)" fill="#fff" stroke="#707070" stroke-width="1"/>
    </clipPath>
  </defs>
  <g id="whatsapp-logo-variant" transform="translate(-6325 -5780)" clip-path="url(#clip-path)">
    <path id="whatsapp-logo-variant-2" data-name="whatsapp-logo-variant" d="M19.847,9.627A9.761,9.761,0,0,1,5.394,18.092L0,19.805l1.758-5.188a9.57,9.57,0,0,1-1.4-4.991,9.743,9.743,0,1,1,19.486,0ZM10.1,1.5A8.169,8.169,0,0,0,1.912,9.629a8.042,8.042,0,0,0,1.561,4.763L2.45,17.408l3.147-1a8.2,8.2,0,0,0,12.7-6.782A8.168,8.168,0,0,0,10.1,1.5Zm4.918,10.355c-.061-.1-.22-.157-.458-.276s-1.413-.692-1.631-.769-.379-.12-.538.118-.615.771-.756.93-.278.179-.518.061A6.584,6.584,0,0,1,9.2,10.742,7.129,7.129,0,0,1,7.87,9.1c-.14-.237-.014-.365.1-.483s.239-.277.359-.416a1.58,1.58,0,0,0,.239-.394.441.441,0,0,0-.02-.416c-.06-.119-.536-1.284-.736-1.758s-.4-.4-.537-.4-.3-.019-.458-.019a.874.874,0,0,0-.636.3A2.653,2.653,0,0,0,5.348,7.49a4.581,4.581,0,0,0,.975,2.451,9.781,9.781,0,0,0,4.08,3.578c2.428.949,2.429.632,2.866.592a2.409,2.409,0,0,0,1.615-1.127,1.969,1.969,0,0,0,.138-1.13Z" transform="translate(6329 5784.117)" fill="#b19dec"/>
  </g>
</svg>
