<svg xmlns="http://www.w3.org/2000/svg" width="318.36" height="123.172" viewBox="0 0 318.36 123.172">
  <g id="logo" transform="translate(-1447.835 -2506.828)">
    <path id="Trazado_6" data-name="Trazado 6" d="M51.11,6.175a2.613,2.613,0,0,1-2-.808q-.76-.808-1.235-1.378L43.985-1.33A29,29,0,0,1,32.11.95a31.593,31.593,0,0,1-13.87-2.8A19.906,19.906,0,0,1,9.263-10.5Q6.08-16.34,5.8-25.175q-.1-4.18-.1-8.028t.1-8.028q.285-8.74,3.61-14.583a21.217,21.217,0,0,1,9.168-8.74,30.1,30.1,0,0,1,13.538-2.9,30.325,30.325,0,0,1,13.632,2.9,21.217,21.217,0,0,1,9.167,8.74q3.325,5.843,3.515,14.583.19,4.18.19,8.028t-.19,8.028Q57.95-12.16,51.585-5.7l6.27,8.93a1.019,1.019,0,0,1,.19.332,2.025,2.025,0,0,1,.1.712,1.531,1.531,0,0,1-.475,1.33,1.933,1.933,0,0,1-1.425.57Zm-19-13.3A16.658,16.658,0,0,0,43.985-11.5q4.655-4.37,5.035-14.155.19-4.275.19-7.647t-.19-7.553A23.576,23.576,0,0,0,46.6-51.49a14.062,14.062,0,0,0-5.937-5.985,18.481,18.481,0,0,0-8.55-1.9,18.345,18.345,0,0,0-8.408,1.9,13.724,13.724,0,0,0-5.937,5.985A24.864,24.864,0,0,0,15.3-40.85q-.1,4.18-.1,7.553t.1,7.647q.38,9.785,5.035,14.155A16.531,16.531,0,0,0,32.11-7.125ZM89.775.95A18.721,18.721,0,0,1,79.467-1.758,17.055,17.055,0,0,1,73.055-9.31,26.779,26.779,0,0,1,70.87-20.425v-26.79a2.124,2.124,0,0,1,.618-1.568,2.124,2.124,0,0,1,1.567-.618h4.75a2.124,2.124,0,0,1,1.568.618,2.124,2.124,0,0,1,.618,1.568V-20.9q0,14.155,12.35,14.155a12.426,12.426,0,0,0,9.452-3.753q3.562-3.753,3.563-10.4V-47.215a2.124,2.124,0,0,1,.618-1.568,2.124,2.124,0,0,1,1.568-.618h4.75a1.969,1.969,0,0,1,1.52.618,2.221,2.221,0,0,1,.57,1.568v45.03a2.221,2.221,0,0,1-.57,1.568A1.969,1.969,0,0,1,112.29,0h-4.465a2.124,2.124,0,0,1-1.567-.618,2.124,2.124,0,0,1-.618-1.568v-4.18a19.689,19.689,0,0,1-6.223,5.32A20.117,20.117,0,0,1,89.775.95ZM130.72,0a2.124,2.124,0,0,1-1.567-.618,2.124,2.124,0,0,1-.618-1.568V-47.12a2.287,2.287,0,0,1,.618-1.615,2.046,2.046,0,0,1,1.567-.665h4.37a2.2,2.2,0,0,1,1.615.665,2.2,2.2,0,0,1,.665,1.615v4.18a12.06,12.06,0,0,1,5.225-4.845A18.356,18.356,0,0,1,150.67-49.4h3.7a2.124,2.124,0,0,1,1.568.618,2.124,2.124,0,0,1,.617,1.568v3.895a1.969,1.969,0,0,1-.617,1.52,2.221,2.221,0,0,1-1.568.57h-5.7a10.813,10.813,0,0,0-8.075,2.993,11.076,11.076,0,0,0-2.945,8.123v27.93a2.046,2.046,0,0,1-.665,1.568A2.287,2.287,0,0,1,135.375,0Zm51.11,0A3.413,3.413,0,0,1,179.6-.665a4.683,4.683,0,0,1-1.283-1.71L160.74-46.455a2.541,2.541,0,0,1-.19-.95,1.933,1.933,0,0,1,.57-1.425,1.933,1.933,0,0,1,1.425-.57h4.56a2.184,2.184,0,0,1,1.615.57,3.308,3.308,0,0,1,.76,1.045l14.44,37.43,14.44-37.43a3.6,3.6,0,0,1,.712-1.045,2.023,2.023,0,0,1,1.568-.57H205.3a1.983,1.983,0,0,1,1.378.57,1.859,1.859,0,0,1,.617,1.425,2.541,2.541,0,0,1-.19.95L189.43-2.375a3.886,3.886,0,0,1-1.187,1.71A3.577,3.577,0,0,1,185.915,0Zm37.62,0a2.124,2.124,0,0,1-1.567-.618,2.124,2.124,0,0,1-.618-1.568v-45.03a2.124,2.124,0,0,1,.618-1.568,2.124,2.124,0,0,1,1.567-.618h4.56a2.124,2.124,0,0,1,1.568.618,2.124,2.124,0,0,1,.618,1.568v45.03a2.124,2.124,0,0,1-.618,1.568A2.124,2.124,0,0,1,224.01,0Z" transform="translate(1540 2585)" fill="#fff"/>
    <path id="Exclusión_3" data-name="Exclusión 3" d="M88.671,88.673H23.359a20.03,20.03,0,0,1-20.03-20.03V23.359A20.03,20.03,0,0,1,23.359,3.329H68.642A20.029,20.029,0,0,1,88.671,23.359V88.672ZM22.1,15.036a8.009,8.009,0,0,0-8,8V68.963a8.009,8.009,0,0,0,8,8H68.963a8.009,8.009,0,0,0,8-8V23.036a8.009,8.009,0,0,0-8-8Z" transform="translate(1444.506 2503.499)" fill="#72be44"/>
    <rect id="Rectángulo_35" data-name="Rectángulo 35" width="33" height="34" rx="16.5" transform="translate(1473.506 2532.499)" fill="#72be44"/>
    <text id="creá_tu_código_QR" data-name="creá tu código QR" transform="translate(1548 2623)" fill="#fff" font-size="27" font-family="Rubik-Light, Rubik" font-weight="300" letter-spacing="0.005em"><tspan x="0" y="0">creá tu código QR</tspan></text>
    <circle id="Elipse_1" data-name="Elipse 1" cx="4.5" cy="4.5" r="4.5" transform="translate(1757 2518)" fill="#fff"/>
  </g>
</svg>
